<svg width="512" height="512" viewBox="0 0 512 512" fill="none" xmlns="http://www.w3.org/2000/svg">
<g opacity="0.3">
<path d="M232 312L384 327.032C390.368 327.032 396.472 324.504 400.968 320L472 216H176L232 312Z" fill="#94B020"/>
<path d="M450.48 154.24C439.032 140.584 425.16 140.912 408.904 143.056C393.84 145.048 378.56 144 363.416 144C355.976 144 348.696 141.8 342.504 137.672C333.304 131.536 321.872 129.752 311.24 132.792L284.744 140.36C277.36 142.472 269.512 139.024 266.08 132.152L258.96 117.92C257.064 114.136 253.744 111.256 249.728 109.912C240.424 106.808 230.544 112.76 228.928 122.432L226.224 138.664C224.944 146.36 218.28 152 210.472 152H208H199.968C191.152 152 184 159.144 184 167.968V184H456C456.088 173.576 457.68 162.824 450.48 154.24V154.24Z" fill="#9C5F20"/>
<path d="M456 184H184H176C167.16 184 160 191.16 160 200C160 208.84 167.16 216 176 216H472C480.84 216 488 208.84 488 200C488 191.16 480.84 184 472 184H456Z" fill="#94B020"/>
<path d="M400.968 296C396.464 300.504 390.36 303.032 384 303.032L301.744 294.896C257.936 290.568 218.864 265.488 196.688 227.464L190 216H176L232 312L384 327.032C390.368 327.032 396.472 324.504 400.968 320L472 216H455.608L400.968 296Z" fill="#839C1C"/>
<path d="M456 170.92H184V184H456C456.04 179.128 456.384 174.2 456.032 169.44C456.024 169.936 456.008 170.424 456 170.92Z" fill="#8A541C"/>
<path d="M432 392C445.255 392 456 381.255 456 368C456 354.745 445.255 344 432 344C418.745 344 408 354.745 408 368C408 381.255 418.745 392 432 392Z" fill="#C4C4C4"/>
<path d="M377.96 346.096L243.896 312.24C243.256 312.08 242.6 312 241.936 312C237.664 312 233.64 310.336 230.616 307.312L101.656 178.344L90.344 189.656L219.312 318.624C220.768 320.08 222.336 321.376 224 322.504V402.96C224 418.976 237.024 432 253.04 432C262.512 432 271.4 427.368 276.808 419.656L326.48 349.6L374.04 361.608L377.96 346.096ZM263.728 410.44C261.288 413.92 257.296 416 253.04 416C245.848 416 240 410.152 240 402.96V327.88C240.296 327.896 240.584 327.984 240.88 327.992L309.848 345.408L263.728 410.44Z" fill="#383838"/>
<path d="M432 304C396.712 304 368 332.712 368 368C368 403.288 396.712 432 432 432C467.288 432 496 403.288 496 368C496 332.712 467.288 304 432 304ZM432 392C418.744 392 408 381.256 408 368C408 354.744 418.744 344 432 344C445.256 344 456 354.744 456 368C456 381.256 445.256 392 432 392Z" fill="#606060"/>
<path d="M101.656 178.344L77.656 154.344C76.16 152.84 74.12 152 72 152H36C24.976 152 16 160.976 16 172C16 183.024 24.976 192 36 192H96C99.232 192 102.152 190.048 103.392 187.064C104.632 184.072 103.944 180.632 101.656 178.344V178.344Z" fill="#606060"/>
<path d="M466.536 224L472 216H176L180.664 224H466.536Z" fill="#839C1C"/>
</g>
</svg>
