<svg width="34" height="36" viewBox="0 0 34 36" fill="none" xmlns="http://www.w3.org/2000/svg">
<path d="M27 27C19 27 19 33 19 33V22H15V33C15 33 15 27 7 27C3 27 0 25 0 25C0 25 0 34 9 34H15C15 34 15 36 17 36C19 36 19 34 19 34H25C34 34 34 25 34 25C34 25 31 27 27 27Z" fill="#3E721D"/>
<path d="M20.1251 27.662C19.7971 27.662 19.4741 27.565 19.1981 27.379L16.8751 25.804L14.5531 27.379C14.2761 27.565 13.9521 27.662 13.6241 27.662C13.4811 27.662 13.3371 27.644 13.1951 27.605C12.7331 27.482 12.3441 27.164 12.1351 26.731L10.9101 24.204L8.11306 24.408C8.07306 24.41 8.03406 24.412 7.99406 24.412C7.55606 24.412 7.13406 24.238 6.82406 23.928C6.48406 23.586 6.30806 23.118 6.34306 22.64L6.54406 19.84L4.02106 18.615C3.58906 18.406 3.27006 18.017 3.14506 17.553C3.02006 17.089 3.10306 16.595 3.37306 16.197L4.94606 13.874L3.37306 11.552C3.10306 11.154 3.02006 10.66 3.14506 10.195C3.27006 9.73301 3.58906 9.34401 4.02106 9.13501L6.54406 7.91001L6.34306 5.11301C6.30906 4.63301 6.48506 4.16201 6.82406 3.82401C7.13406 3.51201 7.55606 3.33901 7.99406 3.33901C8.03406 3.33901 8.07306 3.33901 8.11306 3.34201L10.9101 3.54301L12.1351 1.02001C12.3441 0.588006 12.7331 0.269006 13.1951 0.144006C13.3371 0.106006 13.4801 0.0870056 13.6241 0.0870056C13.9521 0.0870056 14.2751 0.185006 14.5531 0.372006L16.8751 1.94501L19.1981 0.372006C19.4731 0.184006 19.7971 0.0870056 20.1251 0.0870056C20.2691 0.0870056 20.4151 0.107006 20.5531 0.144006C21.0181 0.269006 21.4071 0.588006 21.6151 1.02001L22.8401 3.54301L25.6401 3.34201C25.6771 3.33901 25.7181 3.33901 25.7561 3.33901C26.1941 3.33901 26.6141 3.51201 26.9281 3.82401C27.2661 4.16201 27.4431 4.63301 27.4081 5.11301L27.2041 7.91001L29.7311 9.13501C30.1641 9.34401 30.4821 9.73301 30.6051 10.195C30.7291 10.66 30.6481 11.155 30.3781 11.552L28.8031 13.874L30.3781 16.197C30.6471 16.595 30.7291 17.089 30.6051 17.553C30.4821 18.017 30.1641 18.405 29.7311 18.615L27.2041 19.84L27.4081 22.64C27.4421 23.118 27.2651 23.586 26.9281 23.928C26.6151 24.239 26.1941 24.412 25.7561 24.412C25.7181 24.412 25.6771 24.41 25.6401 24.408L22.8401 24.204L21.6151 26.731C21.4061 27.164 21.0171 27.482 20.5531 27.605C20.4141 27.645 20.2691 27.662 20.1251 27.662Z" fill="#FFAC33"/>
<path d="M17 21C20.866 21 24 17.866 24 14C24 10.134 20.866 7 17 7C13.134 7 10 10.134 10 14C10 17.866 13.134 21 17 21Z" fill="#732700"/>
</svg>
