<svg id="Capa_1" enable-background="new 0 0 512 512" height="512" viewBox="0 0 512 512" width="512" xmlns="http://www.w3.org/2000/svg"><g><path d="m330.312 316.073-74.312-1.703-73.945-1.696c-5.61 48.794 11.074 96.665 45.762 131.353l28.183 28.184 28.184-28.184c33.764-33.764 50.566-80.405 46.128-127.954z" fill="#a0e65c"/><path d="m330.312 316.073-74.312-1.703v157.841l28.184-28.184c33.764-33.764 50.566-80.405 46.128-127.954z" fill="#79cc52"/><path d="m483.831 272.816c-26.616-26.602-53.222-40.503-84.525-45.103h-143.306-143.306c-31.304 4.6-57.909 18.501-84.525 45.103l-28.169 28.184 28.169 28.184c31.523 31.508 67.328 46.816 107.831 46.816 42.7 0 82.837-22.837 113.027-53.027l6.973-6.973 6.973 6.973c30.19 30.19 70.327 53.027 113.027 53.027 40.503 0 76.308-15.308 107.831-46.816l28.169-28.184z" fill="#f25a3c"/><path d="m376 376c40.503 0 76.308-15.308 107.831-46.816l28.169-28.184-28.169-28.184c-26.616-26.602-53.222-40.503-84.525-45.103h-143.306v88.287l6.973 6.973c30.19 30.19 70.327 53.027 113.027 53.027z" fill="#e63a3a"/><path d="m400.858 116.298c-36.01 0-70.327 12.599-98.427 34.702h-46.431-45.615c-28.019-22.233-62.809-34.702-99.243-34.702h-39.844v39.844c0 88.185 71.347 159.858 159.844 159.858h24.858 24.858c88.174 0 159.844-71.351 159.844-159.858v-39.844z" fill="#ff7f40"/><path d="m440.702 156.142v-39.844h-39.844c-36.01 0-70.327 12.599-98.427 34.702h-46.431v165h24.858c88.175 0 159.844-71.351 159.844-159.858z" fill="#f25a3c"/><path d="m284.301 68.09-28.301-28.301-28.301 28.301c-29.678 29.678-46.699 70.825-46.699 112.91s17.021 77.021 46.699 106.699l28.301 28.301 28.301-28.301c29.678-29.678 46.699-64.614 46.699-106.699s-17.021-83.232-46.699-112.91z" fill="#ff9f40"/><path d="m331 181c0-42.085-17.021-83.232-46.699-112.91l-28.301-28.301v276.211l28.301-28.301c29.678-29.678 46.699-64.614 46.699-106.699z" fill="#ff7f40"/></g></svg>