<svg width="46" height="46" viewBox="0 0 46 46" fill="none" xmlns="http://www.w3.org/2000/svg">
<g clip-path="url(#clip0)">
<g clip-path="url(#clip1)">
<path d="M23 35C29.6274 35 35 29.6274 35 23C35 16.3726 29.6274 11 23 11C16.3726 11 11 16.3726 11 23C11 29.6274 16.3726 35 23 35Z" fill="#FFD83B"/>
<path d="M18.7977 18.6192C20.0404 18.6192 21.0477 17.6119 21.0477 16.3692C21.0477 15.1266 20.0404 14.1192 18.7977 14.1192C17.5551 14.1192 16.5477 15.1266 16.5477 16.3692C16.5477 17.6119 17.5551 18.6192 18.7977 18.6192Z" fill="#F3C432"/>
<path d="M28.8193 19.4165C29.7421 19.4165 30.4903 18.6684 30.4903 17.7455C30.4903 16.8226 29.7421 16.0745 28.8193 16.0745C27.8964 16.0745 27.1483 16.8226 27.1483 17.7455C27.1483 18.6684 27.8964 19.4165 28.8193 19.4165Z" fill="#F3C432"/>
<path d="M22.7203 24.4707C23.5325 24.4707 24.191 23.8123 24.191 23C24.191 22.1877 23.5325 21.5292 22.7203 21.5292C21.908 21.5292 21.2495 22.1877 21.2495 23C21.2495 23.8123 21.908 24.4707 22.7203 24.4707Z" fill="#F3C432"/>
<path d="M24.3778 27.8735C24.7191 27.8735 24.9958 27.5968 24.9958 27.2555C24.9958 26.9142 24.7191 26.6375 24.3778 26.6375C24.0365 26.6375 23.7598 26.9142 23.7598 27.2555C23.7598 27.5968 24.0365 27.8735 24.3778 27.8735Z" fill="#F3C432"/>
<path d="M16.5462 23.1417C16.8875 23.1417 17.1642 22.865 17.1642 22.5237C17.1642 22.1824 16.8875 21.9057 16.5462 21.9057C16.2049 21.9057 15.9282 22.1824 15.9282 22.5237C15.9282 22.865 16.2049 23.1417 16.5462 23.1417Z" fill="#F3C432"/>
<path d="M29.393 12.857C30.563 14.7095 31.25 16.8972 31.25 19.25C31.25 25.877 25.8778 31.25 19.25 31.25C16.8972 31.25 14.7095 30.563 12.857 29.393C14.9825 32.7582 18.7258 35 23 35C29.6278 35 35 29.627 35 23C35 18.7257 32.7583 14.9825 29.393 12.857Z" fill="#F3C432"/>
<path d="M23.363 33.4347C23.8203 33.4347 24.191 33.064 24.191 32.6067C24.191 32.1495 23.8203 31.7787 23.363 31.7787C22.9057 31.7787 22.535 32.1495 22.535 32.6067C22.535 33.064 22.9057 33.4347 23.363 33.4347Z" fill="#E8AF2A"/>
<path d="M18.3897 28.481C19.0666 28.481 19.6152 27.9323 19.6152 27.2555C19.6152 26.5787 19.0666 26.03 18.3897 26.03C17.7129 26.03 17.1642 26.5787 17.1642 27.2555C17.1642 27.9323 17.7129 28.481 18.3897 28.481Z" fill="#F3C432"/>
<path d="M30.7025 27.8638C31.3793 27.8638 31.928 27.3151 31.928 26.6383C31.928 25.9614 31.3793 25.4128 30.7025 25.4128C30.0257 25.4128 29.477 25.9614 29.477 26.6383C29.477 27.3151 30.0257 27.8638 30.7025 27.8638Z" fill="#E8AF2A"/>
</g>
</g>
<defs>
<clipPath id="clip0">
<rect width="46" height="46" fill="white"/>
</clipPath>
<clipPath id="clip1">
<rect width="24" height="24" fill="white" transform="translate(11 11)"/>
</clipPath>
</defs>
</svg>
