<svg width="30" height="30" viewBox="0 0 30 30" fill="none" xmlns="http://www.w3.org/2000/svg">
<g clip-path="url(#clip0)">
<path d="M15 30C23.2843 30 30 23.2843 30 15C30 6.71573 23.2843 0 15 0C6.71573 0 0 6.71573 0 15C0 23.2843 6.71573 30 15 30Z" fill="#FFD83B"/>
<path d="M9.74714 9.52407C11.3004 9.52407 12.5596 8.26487 12.5596 6.71157C12.5596 5.15828 11.3004 3.89908 9.74714 3.89908C8.19383 3.89908 6.93463 5.15828 6.93463 6.71157C6.93463 8.26487 8.19383 9.52407 9.74714 9.52407Z" fill="#F3C432"/>
<path d="M22.2741 10.5206C23.4276 10.5206 24.3628 9.58547 24.3628 8.43189C24.3628 7.27831 23.4276 6.34314 22.2741 6.34314C21.1205 6.34314 20.1853 7.27831 20.1853 8.43189C20.1853 9.58547 21.1205 10.5206 22.2741 10.5206Z" fill="#F3C432"/>
<path d="M14.6503 16.8384C15.6657 16.8384 16.4888 16.0153 16.4888 15C16.4888 13.9847 15.6657 13.1616 14.6503 13.1616C13.635 13.1616 12.8119 13.9847 12.8119 15C12.8119 16.0153 13.635 16.8384 14.6503 16.8384Z" fill="#F3C432"/>
<path d="M16.7222 21.0919C17.1488 21.0919 17.4947 20.746 17.4947 20.3194C17.4947 19.8927 17.1488 19.5469 16.7222 19.5469C16.2956 19.5469 15.9497 19.8927 15.9497 20.3194C15.9497 20.746 16.2956 21.0919 16.7222 21.0919Z" fill="#F3C432"/>
<path d="M6.93278 15.1772C7.35942 15.1772 7.70528 14.8313 7.70528 14.4047C7.70528 13.9781 7.35942 13.6322 6.93278 13.6322C6.50614 13.6322 6.16028 13.9781 6.16028 14.4047C6.16028 14.8313 6.50614 15.1772 6.93278 15.1772Z" fill="#F3C432"/>
<path d="M22.9913 2.32126C24.4538 4.63688 25.3125 7.37157 25.3125 10.3125C25.3125 18.5963 18.5972 25.3125 10.3125 25.3125C7.37155 25.3125 4.63686 24.4538 2.32123 22.9913C4.97811 27.1978 9.65717 30 15 30C23.2847 30 30 23.2838 30 15C30 9.6572 27.1978 4.97813 22.9913 2.32126Z" fill="#F3C432"/>
<path d="M15.4538 28.0434C16.0254 28.0434 16.4887 27.5801 16.4887 27.0084C16.4887 26.4368 16.0254 25.9734 15.4538 25.9734C14.8821 25.9734 14.4188 26.4368 14.4188 27.0084C14.4188 27.5801 14.8821 28.0434 15.4538 28.0434Z" fill="#E8AF2A"/>
<path d="M9.23714 21.8513C10.0832 21.8513 10.769 21.1654 10.769 20.3194C10.769 19.4733 10.0832 18.7875 9.23714 18.7875C8.3911 18.7875 7.70526 19.4733 7.70526 20.3194C7.70526 21.1654 8.3911 21.8513 9.23714 21.8513Z" fill="#F3C432"/>
<path d="M24.6281 21.0797C25.4741 21.0797 26.1599 20.3938 26.1599 19.5478C26.1599 18.7018 25.4741 18.0159 24.6281 18.0159C23.782 18.0159 23.0962 18.7018 23.0962 19.5478C23.0962 20.3938 23.782 21.0797 24.6281 21.0797Z" fill="#E8AF2A"/>
</g>
<defs>
<clipPath id="clip0">
<rect width="30" height="30" fill="white"/>
</clipPath>
</defs>
</svg>
