<svg id="Capa_1" enable-background="new 0 0 497 497" height="512" viewBox="0 0 497 497" width="512" xmlns="http://www.w3.org/2000/svg"><g><circle cx="248.5" cy="150.5" fill="#ffb13f" r="7.5"/><circle cx="248.5" cy="346.5" fill="#ff893b" r="7.5"/><circle cx="199.5" cy="163.63" fill="#ff893b" r="7.5"/><circle cx="297.5" cy="333.37" fill="#ffb13f" r="7.5"/><circle cx="163.63" cy="199.5" fill="#ffb13f" r="7.5"/><circle cx="333.37" cy="297.5" fill="#ff893b" r="7.5"/><g fill="#ffb13f"><circle cx="150.5" cy="248.5" r="7.5"/><circle cx="346.5" cy="248.5" r="7.5"/><circle cx="163.63" cy="297.5" r="7.5"/><circle cx="333.37" cy="199.5" r="7.5"/><circle cx="199.5" cy="333.37" r="7.5"/><circle cx="297.5" cy="163.63" r="7.5"/></g><path d="m248.5 0-15 89.056v.944c0 8.284 6.716 15 15 15s15-6.716 15-15v-.944c13.242-8.681 22.5-28.492 22.5-51.556 0-20.711-16.789-37.5-37.5-37.5z" fill="#ffcf70"/><path d="m256 37.5c0-20.711-3.358-37.5-7.5-37.5-20.711 0-37.5 16.789-37.5 37.5 0 23.064 9.258 42.875 22.5 51.556 13.242-8.681 22.5-28.492 22.5-51.556z" fill="#ffeca1"/><path d="m248.5 196-15 89.056v.944c0 8.284 6.716 15 15 15s15-6.716 15-15v-.944c13.242-8.681 22.5-28.492 22.5-51.556 0-20.711-16.789-37.5-37.5-37.5z" fill="#ffcf70"/><path d="m256 233.5c0-20.711-3.358-37.5-7.5-37.5-20.711 0-37.5 16.789-37.5 37.5 0 23.064 9.258 42.875 22.5 51.556 13.242-8.681 22.5-28.492 22.5-51.556z" fill="#ffeca1"/><path d="m248.5 497-15-89.056v-.944c0-8.284 6.716-15 15-15s15 6.716 15 15v.944c13.242 8.681 22.5 28.492 22.5 51.556 0 20.711-16.789 37.5-37.5 37.5z" fill="#ffcf70"/><path d="m256 459.5c0 20.711-3.358 37.5-7.5 37.5-20.711 0-37.5-16.789-37.5-37.5 0-23.064 9.258-42.875 22.5-51.556 13.242 8.681 22.5 28.492 22.5 51.556z" fill="#ffeca1"/><path d="m372.75 463.707-31.538-84.625-.472-.817c-4.142-7.174-13.316-9.633-20.49-5.49-7.174 4.142-9.633 13.316-5.49 20.49l.472.818c-7.127 14.139-5.239 35.925 6.292 55.899 10.355 17.935 33.29 24.081 51.226 13.725z" fill="#ffcf70"/><path d="m347.505 434.981c10.355 17.936 21.658 30.797 25.245 28.726 17.936-10.355 24.081-33.29 13.726-51.226-11.532-19.974-29.455-32.502-45.264-33.399-7.127 14.14-5.239 35.926 6.293 55.899z" fill="#ffeca1"/><path d="m463.707 372.75-69.625-57.518-.817-.472c-7.174-4.142-16.348-1.684-20.49 5.49s-1.684 16.348 5.49 20.49l.818.472c.897 15.809 13.425 33.732 33.399 45.264 17.935 10.355 40.87 4.21 51.225-13.726z" fill="#ffb13f"/><path d="m427.481 360.495c17.936 10.355 34.155 15.842 36.226 12.255 10.355-17.936 4.21-40.871-13.726-51.226-19.974-11.532-41.76-13.42-55.899-6.292.898 15.808 13.426 33.731 33.399 45.263z" fill="#ffcf70"/><path d="m497 248.5-89.056-15h-.944c-8.284 0-15 6.716-15 15s6.716 15 15 15h.944c8.681 13.242 28.492 22.5 51.556 22.5 20.711 0 37.5-16.789 37.5-37.5z" fill="#ffb13f"/><path d="m459.5 256c20.711 0 37.5-3.358 37.5-7.5 0-20.711-16.789-37.5-37.5-37.5-23.064 0-42.875 9.258-51.556 22.5 8.681 13.242 28.492 22.5 51.556 22.5z" fill="#ffcf70"/><path d="m463.707 124.25-84.625 31.538-.817.472c-7.174 4.142-9.633 13.316-5.49 20.49 4.142 7.174 13.316 9.633 20.49 5.49l.818-.472c14.139 7.127 35.925 5.239 55.899-6.292 17.935-10.355 24.081-33.29 13.725-51.226z" fill="#ffcf70"/><path d="m434.981 149.495c17.936-10.355 30.797-21.658 28.726-25.245-10.355-17.936-33.29-24.081-51.226-13.726-19.974 11.532-32.502 29.455-33.399 45.264 14.14 7.127 35.926 5.239 55.899-6.293z" fill="#ffeca1"/><path d="m372.75 33.293-57.518 69.625-.472.817c-4.142 7.174-1.684 16.348 5.49 20.49s16.348 1.684 20.49-5.49l.472-.817c15.809-.897 33.732-13.425 45.264-33.399 10.355-17.936 4.21-40.871-13.726-51.226z" fill="#ffb13f"/><path d="m360.495 69.519c10.355-17.936 15.842-34.155 12.255-36.226-17.936-10.355-40.871-4.21-51.226 13.726-11.532 19.974-13.42 41.76-6.292 55.899 15.808-.898 33.731-13.426 45.263-33.399z" fill="#ffcf70"/><path d="m124.25 463.707 31.538-84.625.472-.817c4.142-7.174 13.316-9.633 20.49-5.49 7.174 4.142 9.633 13.316 5.49 20.49l-.472.818c7.127 14.139 5.239 35.925-6.292 55.899-10.355 17.935-33.29 24.081-51.226 13.725z" fill="#ffb13f"/><path d="m149.495 434.981c-10.355 17.936-21.658 30.797-25.245 28.726-17.936-10.355-24.081-33.29-13.726-51.226 11.532-19.974 29.455-32.502 45.264-33.399 7.127 14.14 5.239 35.926-6.293 55.899z" fill="#ffcf70"/><path d="m33.293 372.75 69.625-57.518.817-.472c7.174-4.142 16.348-1.684 20.49 5.49s1.684 16.348-5.49 20.49l-.817.472c-.897 15.809-13.425 33.732-33.399 45.264-17.936 10.355-40.871 4.21-51.226-13.726z" fill="#ffcf70"/><path d="m69.519 360.495c-17.936 10.355-34.155 15.842-36.226 12.255-10.355-17.936-4.21-40.871 13.726-51.226 19.974-11.532 41.76-13.42 55.899-6.292-.898 15.808-13.426 33.731-33.399 45.263z" fill="#ffeca1"/><path d="m0 248.5 89.056-15h.944c8.284 0 15 6.716 15 15s-6.716 15-15 15h-.944c-8.681 13.242-28.492 22.5-51.556 22.5-20.711 0-37.5-16.789-37.5-37.5z" fill="#ffcf70"/><path d="m37.5 256c-20.711 0-37.5-3.358-37.5-7.5 0-20.711 16.789-37.5 37.5-37.5 23.064 0 42.875 9.258 51.556 22.5-8.681 13.242-28.492 22.5-51.556 22.5z" fill="#ffeca1"/><path d="m33.293 124.25 84.625 31.538.817.472c7.174 4.142 9.633 13.316 5.49 20.49-4.142 7.174-13.316 9.633-20.49 5.49l-.817-.472c-14.139 7.127-35.925 5.239-55.899-6.292-17.936-10.355-24.082-33.29-13.726-51.226z" fill="#ffb13f"/><path d="m62.019 149.495c-17.936-10.355-30.797-21.658-28.726-25.245 10.355-17.936 33.29-24.081 51.226-13.726 19.974 11.532 32.502 29.455 33.399 45.264-14.14 7.127-35.926 5.239-55.899-6.293z" fill="#ffcf70"/><path d="m124.25 33.293 57.518 69.625.472.817c4.142 7.174 1.684 16.348-5.49 20.49s-16.348 1.684-20.49-5.49l-.472-.817c-15.809-.897-33.732-13.425-45.264-33.399-10.355-17.936-4.21-40.871 13.726-51.226z" fill="#ffcf70"/><path d="m136.505 69.519c-10.355-17.936-15.842-34.155-12.255-36.226 17.936-10.355 40.871-4.21 51.226 13.726 11.532 19.974 13.42 41.76 6.292 55.899-15.808-.898-33.731-13.426-45.263-33.399z" fill="#ffeca1"/></g></svg>