<svg width="35" height="35" viewBox="0 0 35 35" fill="none" xmlns="http://www.w3.org/2000/svg">
<g clip-path="url(#clip0)">
<path d="M28.94 35H6.06003C5.81133 35.0004 5.56656 34.9379 5.34842 34.8185C5.13028 34.699 4.94583 34.5264 4.81219 34.3167C4.67854 34.107 4.60002 33.8669 4.58391 33.6187C4.5678 33.3705 4.61462 33.1223 4.72003 32.897L5.10803 32.069C5.58102 31.058 5.85339 29.9648 5.91003 28.85L6.85703 10.225C6.8837 9.70227 7.11018 9.20976 7.48966 8.84926C7.86914 8.48876 8.37262 8.28784 8.89603 8.288H26.103C27.19 8.288 28.087 9.139 28.142 10.225L29.09 28.85C29.1461 29.9646 29.4178 31.0578 29.89 32.069L30.278 32.897C30.3834 33.1221 30.4302 33.3702 30.4142 33.6182C30.3982 33.8662 30.3198 34.1062 30.1864 34.3159C30.053 34.5255 29.8688 34.6982 29.651 34.8178C29.4331 34.9374 29.1886 35 28.94 35Z" fill="#DDAF89"/>
<path d="M11.59 8.288H8.89599C8.37257 8.28784 7.8691 8.48876 7.48962 8.84926C7.11014 9.20976 6.88366 9.70227 6.85699 10.225L5.90999 28.85C5.85322 29.9644 5.58085 31.0573 5.10799 32.068L4.72099 32.896C4.61543 33.1212 4.56842 33.3693 4.58432 33.6175C4.60023 33.8656 4.67853 34.1058 4.81197 34.3156C4.94541 34.5254 5.12966 34.6982 5.34766 34.8178C5.56565 34.9374 5.81032 35.0001 6.05899 35H19.453C10.771 30.3 10.203 13.73 11.59 8.288Z" fill="#C9A07D"/>
<path d="M5.64101 30.59C5.50861 31.0982 5.33021 31.5932 5.10801 32.069L4.72101 32.897C4.61564 33.1222 4.56881 33.3703 4.58487 33.6184C4.60094 33.8665 4.67937 34.1066 4.81289 34.3163C4.94642 34.526 5.13073 34.6986 5.34874 34.8181C5.56674 34.9376 5.81139 35.0002 6.06001 35H28.94C29.1885 35 29.4331 34.9374 29.6509 34.8178C29.8688 34.6982 30.053 34.5255 30.1864 34.3158C30.3198 34.1062 30.3981 33.8662 30.4142 33.6182C30.4302 33.3702 30.3833 33.1221 30.278 32.897L29.891 32.069C29.6688 31.5932 29.4904 31.0981 29.358 30.59C25.878 31.168 20.821 31.4 17.5 31.4C14.178 31.4 9.12001 31.168 5.64101 30.59Z" fill="#7BD0A7"/>
<path d="M13.1841 12.454C13.1841 12.8768 13.0162 13.2822 12.7172 13.5811C12.4183 13.8801 12.0128 14.048 11.5901 14.048C11.1673 14.048 10.7619 13.8801 10.463 13.5811C10.164 13.2822 9.99609 12.8768 9.99609 12.454C9.99609 12.0312 10.164 11.6258 10.463 11.3269C10.7619 11.0279 11.1673 10.86 11.5901 10.86C12.0128 10.86 12.4183 11.0279 12.7172 11.3269C13.0162 11.6258 13.1841 12.0312 13.1841 12.454Z" fill="#F8E47C"/>
<path d="M11.0131 13.939C11.0211 12.849 11.0731 11.83 11.1631 10.919C10.8411 11.0091 10.5555 11.1982 10.3469 11.4594C10.1383 11.7207 10.0171 12.041 10.0005 12.375C9.98391 12.7089 10.0728 13.0397 10.2545 13.3203C10.4362 13.601 10.7016 13.8174 11.0131 13.939Z" fill="#EDD35F"/>
<path d="M25.0029 12.454C25.0029 12.8768 24.835 13.2822 24.5361 13.5811C24.2371 13.8801 23.8317 14.048 23.4089 14.048C22.9862 14.048 22.5807 13.8801 22.2818 13.5811C21.9829 13.2822 21.8149 12.8768 21.8149 12.454C21.8149 12.0312 21.9829 11.6258 22.2818 11.3269C22.5807 11.0279 22.9862 10.86 23.4089 10.86C23.8317 10.86 24.2371 11.0279 24.5361 11.3269C24.835 11.6258 25.0029 12.0312 25.0029 12.454Z" fill="#F8E47C"/>
<path d="M21.5959 29.78H13.4029C13.2668 29.78 13.1364 29.726 13.0401 29.6297C12.9439 29.5335 12.8899 29.4031 12.8899 29.267C12.8899 29.1309 12.9439 29.0005 13.0401 28.9043C13.1364 28.8081 13.2668 28.754 13.4029 28.754H21.5959C21.6651 28.7509 21.7342 28.7619 21.7991 28.7863C21.8639 28.8107 21.9231 28.8479 21.9732 28.8958C22.0232 28.9437 22.0631 29.0013 22.0903 29.065C22.1175 29.1287 22.1315 29.1972 22.1315 29.2665C22.1315 29.3358 22.1175 29.4043 22.0903 29.468C22.0631 29.5317 22.0232 29.5893 21.9732 29.6372C21.9231 29.6851 21.8639 29.7223 21.7991 29.7467C21.7342 29.7711 21.6651 29.7821 21.5959 29.779V29.78Z" fill="#C9A07D"/>
<path d="M23.4099 12.966C23.274 12.966 23.1437 12.9121 23.0475 12.8161C22.9513 12.7201 22.8972 12.5899 22.8969 12.454V6.423C22.8956 4.99194 22.3266 3.61986 21.3148 2.60785C20.303 1.59585 18.931 1.02659 17.4999 1.025C16.0687 1.02632 14.6965 1.59547 13.6844 2.6075C12.6724 3.61953 12.1032 4.99177 12.1019 6.423V12.453C12.105 12.5222 12.094 12.5913 12.0696 12.6562C12.0452 12.721 12.008 12.7802 11.9601 12.8303C11.9122 12.8803 11.8547 12.9202 11.791 12.9474C11.7272 12.9746 11.6587 12.9886 11.5894 12.9886C11.5201 12.9886 11.4516 12.9746 11.3879 12.9474C11.3242 12.9202 11.2666 12.8803 11.2188 12.8303C11.1709 12.7802 11.1336 12.721 11.1092 12.6562C11.0848 12.5913 11.0739 12.5222 11.0769 12.453V6.423C11.0788 4.72008 11.7561 3.08744 12.9602 1.8833C14.1644 0.679155 15.797 0.00185287 17.4999 0C19.2027 0.00211749 20.835 0.679536 22.039 1.88365C23.2429 3.08777 23.9201 4.72026 23.9219 6.423V12.453C23.9219 12.737 23.6919 12.966 23.4089 12.966H23.4099ZM21.3089 25.965C21.2415 25.9652 21.1747 25.9521 21.1124 25.9263C21.0501 25.9006 20.9935 25.8628 20.9459 25.815L17.0379 21.907C16.9903 21.8594 16.9525 21.8029 16.9268 21.7407C16.901 21.6785 16.8878 21.6118 16.8878 21.5445C16.8878 21.4772 16.901 21.4105 16.9268 21.3483C16.9525 21.2861 16.9903 21.2296 17.0379 21.182C17.0855 21.1344 17.142 21.0966 17.2042 21.0709C17.2664 21.0451 17.3331 21.0318 17.4004 21.0318C17.4677 21.0318 17.5344 21.0451 17.5966 21.0709C17.6588 21.0966 17.7153 21.1344 17.7629 21.182L21.6709 25.09C21.7424 25.1617 21.791 25.253 21.8107 25.3523C21.8303 25.4516 21.8202 25.5546 21.7815 25.6481C21.7428 25.7417 21.6772 25.8217 21.5931 25.8781C21.5091 25.9345 21.4102 25.9647 21.3089 25.965Z" fill="#495059"/>
<path d="M20.8959 21.659L18.4839 22.628L17.5139 25.041C17.2359 25.733 16.2549 25.731 15.9799 25.037L13.6619 19.185C13.3189 18.32 14.1759 17.464 15.0409 17.806L20.8929 20.124C21.5859 20.399 21.5889 21.38 20.8959 21.659Z" fill="#495059"/>
<path d="M15.469 31.374C12.336 31.3 8.46801 31.06 5.64101 30.59C5.50872 31.0982 5.33031 31.5932 5.10801 32.069L4.72101 32.897C4.61567 33.1221 4.56884 33.3702 4.58486 33.6182C4.60087 33.8662 4.67921 34.1062 4.81263 34.3158C4.94604 34.5255 5.13021 34.6982 5.34808 34.8178C5.56595 34.9374 5.81047 35 6.05901 35H19.453C17.866 34.141 16.551 32.885 15.469 31.374Z" fill="#70BD98"/>
</g>
<defs>
<clipPath id="clip0">
<rect width="35" height="35" fill="white"/>
</clipPath>
</defs>
</svg>
