<svg width="46" height="46" viewBox="0 0 46 46" fill="none" xmlns="http://www.w3.org/2000/svg">
<g clip-path="url(#clip0)">
<path d="M23 36.9824C30.7225 36.9824 36.9828 30.7221 36.9828 22.9996C36.9828 15.2772 30.7225 9.01691 23 9.01691C15.2776 9.01691 9.01727 15.2772 9.01727 22.9996C9.01727 30.7221 15.2776 36.9824 23 36.9824Z" fill="#FFB829"/>
<path d="M28.1168 45.4377L23.0003 37.0223L17.8835 45.4374L16.9179 35.6341L8.65457 40.982L12.0358 31.7411L2.26493 32.9896L9.32938 26.1229L0 22.9997L9.33003 19.8768L2.26525 13.0101L12.0361 14.2586L8.65489 5.01735L16.9183 10.3659L17.8835 0.562683L23.0003 8.97774L28.1168 0.562683L29.0824 10.3659L37.3457 5.018L33.9642 14.2586L43.735 13.0104L36.6703 19.8768L46.0003 22.9997L36.6703 26.1229L43.735 32.99L33.9642 31.7411L37.3454 40.9827L29.0824 35.6341L28.1168 45.4377ZM19.2496 30.7963L19.8441 36.8346L23 31.6439L26.1559 36.8343L26.7503 30.7963L31.8506 34.0971L29.7614 28.3875L35.7825 29.1566L31.4329 24.9292L37.1963 22.9997L31.4329 21.0705L35.7825 16.8431L29.7614 17.6122L31.8506 11.9026L26.7507 15.2037L26.1562 9.16572L23.0003 14.3561L19.8444 9.16572L19.2499 15.2037L14.1496 11.9026L16.2389 17.6122L10.2178 16.8431L14.5674 21.0705L8.80366 22.9997L14.5674 24.9292L10.2178 29.1563L16.2386 28.3875L14.1496 34.0971L19.2496 30.7963Z" fill="#FDDD66"/>
<path d="M23.0003 34.069C29.1137 34.069 34.0696 29.1131 34.0696 22.9997C34.0696 16.8863 29.1137 11.9305 23.0003 11.9305C16.887 11.9305 11.9311 16.8863 11.9311 22.9997C11.9311 29.1131 16.887 34.069 23.0003 34.069Z" fill="#FFB829"/>
</g>
<defs>
<clipPath id="clip0">
<rect width="46" height="46" fill="white"/>
</clipPath>
</defs>
</svg>
