<svg width="46" height="46" viewBox="0 0 46 46" fill="none" xmlns="http://www.w3.org/2000/svg">
<path d="M22.9997 33.5023C29.0433 33.5023 33.9427 28.603 33.9427 22.5593C33.9427 16.5157 29.0433 11.6164 22.9997 11.6164C16.9561 11.6164 12.0568 16.5157 12.0568 22.5593C12.0568 28.603 16.9561 33.5023 22.9997 33.5023Z" fill="#FFB829"/>
<path d="M27.0043 40.1193L23.0001 33.5334L18.9957 40.1191L18.24 32.447L11.7731 36.6323L14.4192 29.4004L6.77254 30.3775L12.3012 25.0035L5 22.5593L12.3017 20.1153L6.7728 14.7414L14.4195 15.7185L11.7734 8.48624L18.2403 12.6721L18.9957 5L23.0001 11.5857L27.0043 5L27.76 12.6721L34.2269 8.48675L31.5805 15.7185L39.2272 14.7416L33.6983 20.1153L41 22.5593L33.6983 25.0035L39.2272 30.3777L31.5805 29.4004L34.2266 36.6329L27.76 32.447L27.0043 40.1193ZM20.0648 28.661L20.53 33.3866L22.9999 29.3243L25.4697 33.3863L25.9349 28.661L29.9264 31.2442L28.2914 26.7758L33.0035 27.3777L29.5995 24.0693L34.11 22.5593L29.5995 21.0495L33.0035 17.7411L28.2914 18.343L29.9264 13.8746L25.9352 16.4581L25.47 11.7328L23.0001 15.7948L20.5303 11.7328L20.0651 16.4581L16.0736 13.8746L17.7086 18.343L12.9965 17.7411L16.4005 21.0495L11.8898 22.5593L16.4005 24.0693L12.9965 27.3775L17.7084 26.7758L16.0736 31.2442L20.0648 28.661Z" fill="#FDDD66"/>
<path d="M23.0001 31.2221C27.7845 31.2221 31.663 27.3436 31.663 22.5592C31.663 17.7749 27.7845 13.8964 23.0001 13.8964C18.2158 13.8964 14.3373 17.7749 14.3373 22.5592C14.3373 27.3436 18.2158 31.2221 23.0001 31.2221Z" fill="#FFB829"/>
</svg>
