<svg width="46" height="46" viewBox="0 0 46 46" fill="none" xmlns="http://www.w3.org/2000/svg">
<g clip-path="url(#clip0)">
<path d="M23 37.4197C30.7225 37.4197 36.9828 31.1594 36.9828 23.437C36.9828 15.7145 30.7225 9.45422 23 9.45422C15.2776 9.45422 9.01727 15.7145 9.01727 23.437C9.01727 31.1594 15.2776 37.4197 23 37.4197Z" fill="#FFB829"/>
<path d="M28.1168 45.875L23.0003 37.4596L17.8835 45.8747L16.9179 36.0714L8.65457 41.4194L12.0358 32.1784L2.26493 33.4269L9.32938 26.5602L0 23.437L9.33003 20.3141L2.26525 13.4474L12.0361 14.6959L8.65489 5.45467L16.9183 10.8032L17.8835 1L23.0003 9.41505L28.1168 1L29.0824 10.8032L37.3457 5.45531L33.9642 14.6959L43.735 13.4477L36.6703 20.3141L46.0003 23.437L36.6703 26.5602L43.735 33.4273L33.9642 32.1784L37.3454 41.42L29.0824 36.0714L28.1168 45.875ZM19.2496 31.2336L19.8441 37.272L23 32.0812L26.1559 37.2716L26.7503 31.2336L31.8506 34.5345L29.7614 28.8248L35.7825 29.5939L31.4329 25.3665L37.1963 23.437L31.4329 21.5079L35.7825 17.2804L29.7614 18.0495L31.8506 12.3399L26.7507 15.641L26.1562 9.60304L23.0003 14.7935L19.8444 9.60304L19.2499 15.641L14.1496 12.3399L16.2389 18.0495L10.2178 17.2804L14.5674 21.5079L8.80366 23.437L14.5674 25.3665L10.2178 29.5936L16.2386 28.8248L14.1496 34.5345L19.2496 31.2336Z" fill="#FDDD66"/>
<path d="M23.0003 34.5063C29.1137 34.5063 34.0696 29.5504 34.0696 23.437C34.0696 17.3236 29.1137 12.3678 23.0003 12.3678C16.887 12.3678 11.9311 17.3236 11.9311 23.437C11.9311 29.5504 16.887 34.5063 23.0003 34.5063Z" fill="#FFB829"/>
</g>
<defs>
<clipPath id="clip0">
<rect width="46" height="46" fill="white"/>
</clipPath>
</defs>
</svg>
