<svg id="torch" enable-background="new 0 0 300 300" height="512" viewBox="0 0 300 300" width="512" xmlns="http://www.w3.org/2000/svg"><g><path d="m70.926 174c-7.719 0-14 6.281-14 14s6.281 14 14 14 14-6.281 14-14-6.281-14-14-14zm0 20c-3.309 0-6-2.691-6-6s2.691-6 6-6 6 2.691 6 6-2.692 6-6 6z"/><circle cx="116.926" cy="226" r="4"/><circle cx="192.926" cy="198" r="4"/><path d="m224.926 27.852c-2.209 0-4 1.791-4 4v5.66c0 2.209 1.791 4 4 4s4-1.791 4-4v-5.66c0-2.209-1.791-4-4-4z"/><path d="m224.926 50.488c-2.209 0-4 1.791-4 4v5.66c0 2.209 1.791 4 4 4s4-1.791 4-4v-5.66c0-2.209-1.791-4-4-4z"/><path d="m216.438 50c2.209 0 4-1.791 4-4s-1.791-4-4-4h-5.66c-2.209 0-4 1.791-4 4s1.791 4 4 4z"/><path d="m239.074 42h-5.66c-2.209 0-4 1.791-4 4s1.791 4 4 4h5.66c2.209 0 4-1.791 4-4s-1.791-4-4-4z"/><path d="m167.969 52.324c-3.48-2.867-3.367-5.238-3.328-6.02.256-5.305 7.445-11.301 9.945-12.982 1.459-.982 2.107-2.805 1.594-4.488-.514-1.682-2.062-2.834-3.822-2.834h-9.316c-9.965 0-19.232 4.955-24.789 13.256-4.07 6.078-5.686 13.32-4.705 20.34-3.973-1.131-7.619-1.066-10.902.197-7.246 2.787-9.486 10.371-9.578 10.693-.529 1.85.336 3.814 2.057 4.676 4.307 2.152 6.193 5.279 5.934 9.838-.217 3.838-2.469 6.893-4.32 8.777-6.936 7.068-10.756 16.006-10.756 25.166 0 17.088 13.046 31.652 31.273 37.286l1.101 34.147c-3.132.97-5.428 3.859-5.428 7.306v8.637c0 3.724 2.664 6.832 6.186 7.531l1.816 56.28c.07 2.158 1.84 3.871 3.998 3.871h16c2.158 0 3.928-1.713 3.998-3.871l1.816-56.28c3.522-.698 6.186-3.806 6.186-7.531v-8.637c0-3.448-2.297-6.337-5.43-7.306l1.083-33.564c19.088-5.134 32.981-19.957 33.188-37.469.781-4.323 4.765-35.257-33.801-67.019zm-35.442 82.944c-.139-1.387.006-2.895.146-4.055.719-5.842 3.369-16.051 13.059-18.82 5.92-1.689 10.076-4.975 12.355-9.762 1.436-3.016 1.902-6.248 1.871-9.256 14.154 13.996 17.217 30.75 15.406 39.801-1.699 8.498-8.238 17.576-21.49 17.576-11.108 0-20.485-6.801-21.347-15.484zm8.399 70.732v-8h24v8zm5.421-16-1.029-31.921c1.834.277 3.705.451 5.604.548.971.08 1.956.124 2.953.124 2.262 0 4.471-.176 6.651-.43l-1.023 31.679zm2.452 76-1.678-52h11.61l-1.678 52zm45.062-147.906c-.061.279-.092.564-.092.85 0 9.387-5.156 17.811-13.294 23.638 1.183-2.418 2.165-4.994 2.733-7.835 2.184-10.91-.66-36.422-27.041-54.889-1.459-1.02-3.424-.953-4.814.172-1.387 1.125-1.859 3.033-1.156 4.676.035.084 3.498 8.545.668 14.484-1.268 2.662-3.664 4.465-7.33 5.512-14.654 4.189-18.031 19.258-18.803 25.541v.006c-.191 1.568-.383 3.646-.166 5.812.19 1.919.657 3.756 1.318 5.513-7.34-5.772-11.904-13.781-11.904-22.631 0-7.154 2.928-13.918 8.465-19.561 4.035-4.109 6.316-8.928 6.6-13.932.359-6.359-2.086-11.695-6.957-15.361.768-1.1 1.898-2.256 3.48-2.85 3.006-1.125 7.268-.045 12.326 3.115 1.543.963 3.537.756 4.857-.49 1.324-1.246 1.635-3.238.764-4.834-.047-.086-.312-.594-.658-1.436-2.73-6.625-1.986-13.873 2.041-19.889 3.873-5.783 10.199-9.35 17.084-9.682-2.715 3.246-5.105 7.344-5.332 11.871-.164 3.273.785 8.117 6.232 12.604 36.643 30.18 31.237 58.361 30.979 59.596z"/><path d="m152.926 162c-2.209 0-4 1.791-4 4v16c0 2.209 1.791 4 4 4s4-1.791 4-4v-16c0-2.209-1.791-4-4-4z"/><path d="m224.926 98h-12c-2.209 0-4 1.791-4 4s1.791 4 4 4h12c2.209 0 4-1.791 4-4s-1.791-4-4-4z"/><path d="m215.754 111.172c-1.562-1.562-4.094-1.562-5.656 0s-1.562 4.094 0 5.656l8 8c.781.781 1.805 1.172 2.828 1.172s2.047-.391 2.828-1.172c1.562-1.562 1.562-4.094 0-5.656z"/><path d="m210.098 87.172c-1.562 1.562-1.562 4.094 0 5.656.781.781 1.805 1.172 2.828 1.172s2.047-.391 2.828-1.172l8-8c1.562-1.562 1.562-4.094 0-5.656s-4.094-1.562-5.656 0z"/><path d="m96.926 98h-12c-2.209 0-4 1.791-4 4s1.791 4 4 4h12c2.209 0 4-1.791 4-4s-1.791-4-4-4z"/><path d="m94.098 111.172-8 8c-1.562 1.562-1.562 4.094 0 5.656.781.781 1.805 1.172 2.828 1.172s2.047-.391 2.828-1.172l8-8c1.562-1.562 1.562-4.094 0-5.656s-4.094-1.563-5.656 0z"/><path d="m91.754 79.172c-1.562-1.562-4.094-1.562-5.656 0s-1.562 4.094 0 5.656l8 8c.781.781 1.804 1.172 2.828 1.172s2.047-.391 2.828-1.172c1.562-1.562 1.562-4.094 0-5.656z"/></g></svg>