<svg id="torch" enable-background="new 0 0 300 300" height="512" viewBox="0 0 300 300" width="512" xmlns="http://www.w3.org/2000/svg"><g><circle cx="162.926" cy="196" fill="#e7d1c4" r="74"/><g fill="#4c241d"><path d="m70.926 202c-7.719 0-14-6.281-14-14s6.281-14 14-14 14 6.281 14 14-6.281 14-14 14zm0-20c-3.309 0-6 2.691-6 6s2.691 6 6 6 6-2.691 6-6-2.692-6-6-6z"/><circle cx="116.926" cy="226" r="4"/><circle cx="192.926" cy="198" r="4"/><path d="m224.926 41.512c-2.209 0-4-1.791-4-4v-5.66c0-2.209 1.791-4 4-4s4 1.791 4 4v5.66c0 2.209-1.791 4-4 4z"/><path d="m224.926 64.148c-2.209 0-4-1.791-4-4v-5.66c0-2.209 1.791-4 4-4s4 1.791 4 4v5.66c0 2.209-1.791 4-4 4z"/><path d="m216.438 50h-5.66c-2.209 0-4-1.791-4-4s1.791-4 4-4h5.66c2.209 0 4 1.791 4 4s-1.792 4-4 4z"/><path d="m239.074 50h-5.66c-2.209 0-4-1.791-4-4s1.791-4 4-4h5.66c2.209 0 4 1.791 4 4s-1.791 4-4 4z"/></g><g><path d="m160.926 270h-16l-4-124h24z" fill="#bf7e68"/><path d="m160.926 274h-16c-2.158 0-3.928-1.713-3.998-3.871l-4-124c-.035-1.082.371-2.133 1.125-2.912.752-.777 1.789-1.217 2.873-1.217h24c1.084 0 2.121.439 2.873 1.217.754.779 1.16 1.83 1.125 2.912l-4 124c-.07 2.158-1.84 3.871-3.998 3.871zm-12.127-8h8.254l3.742-116h-15.738z" fill="#4c241d"/></g><g><path d="m197.769 118.944c0 19.777-19.652 35.809-43.894 35.809s-43.894-16.032-43.894-35.809c0-8.461 3.597-16.237 9.612-22.365 3.037-3.094 5.214-7.026 5.459-11.354.263-4.653-1.206-10.175-8.14-13.641 0 0 4.62-16.172 23.102-4.62 0 0-.368-.663-.855-1.844-6.904-16.757 5.76-35.12 23.882-35.12h9.315s-20.859 13.942-6.931 25.413c39.275 32.343 32.344 63.531 32.344 63.531z" fill="#ffce56"/><path d="m153.875 158.752c-26.408 0-47.895-17.857-47.895-39.809 0-9.16 3.82-18.098 10.756-25.166 1.852-1.885 4.104-4.939 4.32-8.777.26-4.559-1.627-7.686-5.934-9.838-1.721-.861-2.586-2.826-2.057-4.676.092-.322 2.332-7.906 9.578-10.693 3.283-1.264 6.93-1.328 10.902-.197-.98-7.02.635-14.262 4.705-20.34 5.559-8.301 14.826-13.256 24.791-13.256h9.316c1.76 0 3.309 1.152 3.822 2.834.514 1.684-.135 3.506-1.594 4.488-2.5 1.682-9.689 7.678-9.945 12.982-.039.781-.152 3.152 3.328 6.02 38.566 31.762 34.582 62.695 33.799 67.018-.257 21.767-21.642 39.41-47.892 39.41zm-31.787-88.662c4.871 3.666 7.316 9.002 6.957 15.361-.283 5.004-2.564 9.822-6.6 13.932-5.537 5.643-8.465 12.406-8.465 19.561 0 17.539 17.896 31.809 39.895 31.809s39.895-14.27 39.895-31.809c0-.285.031-.57.092-.85.258-1.234 5.664-29.416-30.979-59.594-5.447-4.486-6.396-9.33-6.232-12.604.227-4.527 2.617-8.625 5.332-11.871-6.885.332-13.211 3.898-17.084 9.682-4.027 6.016-4.771 13.264-2.041 19.889.346.842.611 1.35.658 1.436.871 1.596.561 3.588-.764 4.834-1.32 1.246-3.314 1.453-4.857.49-5.059-3.16-9.32-4.24-12.326-3.115-1.583.593-2.714 1.749-3.481 2.849z" fill="#4c241d"/></g><g><path d="m128.704 130.73c-.201 1.638-.32 3.293-.157 4.935 1.06 10.686 11.995 19.087 25.328 19.087 14.035 0 23.102-9.241 25.413-20.792s-2.31-34.653-25.413-50.825c0 0 8.668 20.296-9.241 25.413-12.19 3.483-15.191 16.153-15.93 22.182z" fill="#fc8c29"/><path d="m153.875 158.752c-15.424 0-28.025-9.756-29.309-22.691-.217-2.166-.025-4.244.166-5.812 0-.002 0-.004 0-.006.771-6.283 4.148-21.352 18.803-25.541 3.666-1.047 6.062-2.85 7.33-5.512 2.83-5.939-.633-14.4-.668-14.484-.703-1.643-.23-3.551 1.156-4.676 1.391-1.125 3.355-1.191 4.814-.172 26.381 18.467 29.225 43.979 27.041 54.889-2.915 14.581-14.431 24.005-29.333 24.005zm-21.201-27.539c-.141 1.16-.285 2.668-.146 4.055.861 8.684 10.238 15.484 21.348 15.484 13.252 0 19.791-9.078 21.49-17.576 1.811-9.051-1.252-25.805-15.406-39.801.031 3.008-.436 6.24-1.871 9.256-2.279 4.787-6.436 8.072-12.355 9.762-9.691 2.769-12.341 12.978-13.06 18.82z" fill="#4c241d"/></g><path d="m152.926 186c-2.209 0-4-1.791-4-4v-16c0-2.209 1.791-4 4-4s4 1.791 4 4v16c0 2.209-1.791 4-4 4z" fill="#4c241d"/><g><path d="m165.244 210h-24.637c-2.033 0-3.682-1.648-3.682-3.682v-8.637c0-2.033 1.648-3.682 3.682-3.682h24.637c2.033 0 3.682 1.648 3.682 3.682v8.637c0 2.034-1.649 3.682-3.682 3.682z" fill="#ccc"/><path d="m165.244 214h-24.637c-4.236 0-7.682-3.445-7.682-7.682v-8.637c0-4.236 3.445-7.682 7.682-7.682h24.637c4.236 0 7.682 3.445 7.682 7.682v8.637c0 4.237-3.446 7.682-7.682 7.682zm-24.318-8h24v-8h-24z" fill="#4c241d"/></g><path d="m224.926 106h-12c-2.209 0-4-1.791-4-4s1.791-4 4-4h12c2.209 0 4 1.791 4 4s-1.791 4-4 4z" fill="#ffce56"/><path d="m220.926 126c-1.023 0-2.047-.391-2.828-1.172l-8-8c-1.562-1.562-1.562-4.094 0-5.656s4.094-1.562 5.656 0l8 8c1.562 1.562 1.562 4.094 0 5.656-.781.781-1.805 1.172-2.828 1.172z" fill="#ffce56"/><path d="m212.926 94c-1.023 0-2.047-.391-2.828-1.172-1.562-1.562-1.562-4.094 0-5.656l8-8c1.562-1.562 4.094-1.562 5.656 0s1.562 4.094 0 5.656l-8 8c-.781.781-1.805 1.172-2.828 1.172z" fill="#ffce56"/><path d="m96.926 106h-12c-2.209 0-4-1.791-4-4s1.791-4 4-4h12c2.209 0 4 1.791 4 4s-1.791 4-4 4z" fill="#ffce56"/><path d="m88.926 126c-1.023 0-2.047-.391-2.828-1.172-1.562-1.562-1.562-4.094 0-5.656l8-8c1.562-1.562 4.094-1.562 5.656 0s1.562 4.094 0 5.656l-8 8c-.781.781-1.805 1.172-2.828 1.172z" fill="#ffce56"/><path d="m96.926 94c-1.023 0-2.047-.391-2.828-1.172l-8-8c-1.562-1.562-1.562-4.094 0-5.656s4.094-1.562 5.656 0l8 8c1.562 1.562 1.562 4.094 0 5.656-.781.781-1.805 1.172-2.828 1.172z" fill="#ffce56"/></g></svg>